<?xml version="1.0" encoding="UTF-8" standalone="no"?>
<svg width="16px" height="16px" viewBox="0 0 16 16" version="1.1" xmlns="http://www.w3.org/2000/svg" xmlns:xlink="http://www.w3.org/1999/xlink" xmlns:sketch="http://www.bohemiancoding.com/sketch/ns">
    <!-- Generator: Sketch 3.4.4 (17249) - http://www.bohemiancoding.com/sketch -->
    <title>Artboard</title>
    <desc>Created with Sketch.</desc>
    <defs></defs>
    <g id="Page-1" stroke="none" stroke-width="1" fill="none" fill-rule="evenodd" sketch:type="MSPage">
        <g id="Artboard" sketch:type="MSArtboardGroup" fill="#000000">
            <g id="Group" sketch:type="MSLayerGroup" transform="translate(8.000000, 8.000000) scale(1, -1) translate(-8.000000, -8.000000) ">
                <path d="M6.13333333,15.7312977 C4.16666667,15.1572519 2.44444444,13.6061069 1.48888889,11.5541985 C1.07777778,10.6625954 0.744444444,9.18473282 0.8,8.50076336 C0.855555556,7.95114504 0.833333333,7.91450382 0.6,7.91450382 C0.288888889,7.91450382 0,7.60916031 0,7.29160305 C0,6.69312977 0.522222222,6.03358779 1.41111111,5.49618321 C1.72222222,5.3129771 2.24444444,5.00763359 2.56666667,4.81221374 C2.9,4.61679389 3.52222222,4.33587786 3.94444444,4.17709924 C4.65555556,3.92061069 4.72222222,3.87175573 4.68888889,3.59083969 C4.64444444,3.16335878 4.92222222,2.61374046 5.34444444,2.28396947 C6.02222222,1.75877863 6.93333333,1.5389313 8.84444444,1.4778626 L10.6333333,1.40458015 L11.0111111,1.88091603 C11.2222222,2.14961832 12.4,3.44427481 13.6444444,4.78778626 C14.9777778,6.22900763 15.9222222,7.34045802 15.9666667,7.52366412 C16.0666667,7.97557252 15.4222222,8.52519084 14.0555556,9.1480916 C13.4444444,9.41679389 12.8666667,9.75877863 12.7555556,9.90534351 C12.6555556,10.0519084 12.5111111,10.4916031 12.4444444,10.8946565 C12.2555556,11.9694656 12.0666667,12.3114504 11.6666667,12.3114504 C11.4555556,12.3114504 11.2888889,12.2259542 11.2,12.0793893 C11.0777778,11.859542 11.0333333,11.9328244 10.7555556,12.7389313 C10.3666667,13.8381679 10,14.2656489 9.46666667,14.2656489 C9.16666667,14.2656489 9,14.1679389 8.67777778,13.7770992 L8.26666667,13.2763359 L8,13.5938931 C7.78888889,13.8381679 7.64444444,13.8992366 7.34444444,13.8748092 C6.84444444,13.8259542 6.56666667,13.3984733 6.47777778,12.5312977 C6.42222222,11.8717557 6.41111111,11.859542 6.21111111,12.0793893 C5.74444444,12.5923664 5.4,12.2625954 4.87777778,10.8458015 C4.46666667,9.73435115 4.11111111,9.36793893 3.5,9.39236641 C3.17777778,9.40458015 3.17777778,9.40458015 3.55555556,9.49007634 C4.03333333,9.6 4.44444444,9.83206107 4.44444444,10.0030534 C4.44444444,10.0763359 4.64444444,10.6015267 4.87777778,11.1633588 C5.35555556,12.2748092 5.66666667,12.5679389 6.08888889,12.3236641 C6.28888889,12.2015267 6.31111111,12.2381679 6.38888889,12.7389313 C6.53333333,13.8381679 7.32222222,14.351145 8,13.789313 L8.26666667,13.5572519 L8.68888889,13.9725191 C9.5,14.7664122 10.2111111,14.4610687 10.7333333,13.080916 C11.1111111,12.0793893 11.0888889,12.1160305 11.2444444,12.2870229 C11.4444444,12.5068702 11.9444444,12.4580153 12.1444444,12.2137405 C12.2444444,12.0916031 12.4111111,11.578626 12.5111111,11.0778626 C12.6111111,10.5770992 12.7777778,10.0763359 12.8888889,9.95419847 C12.9888889,9.83206107 13.5,9.5389313 14.0111111,9.29465649 C14.5222222,9.06259542 15.0111111,8.84274809 15.0888889,8.80610687 C15.2777778,8.72061069 15.2666667,9.27022901 15.0555556,10.1129771 C14.4222222,12.7633588 12.2222222,15.1083969 9.76666667,15.7801527 C8.77777778,16.048855 7.16666667,16.0244275 6.13333333,15.7312977 L6.13333333,15.7312977 Z M12.0444444,10.7969466 C12.1333333,10.3328244 12.3111111,9.80763359 12.4333333,9.61221374 C12.5666667,9.41679389 12.7,9.09923664 12.7333333,8.90381679 L12.8,8.56183206 L11.3111111,8.46412214 C10.0444444,8.39083969 9.53333333,8.42748092 7.77777778,8.69618321 C6.64444444,8.86717557 5.43333333,9.03816794 5.07777778,9.0870229 L4.43333333,9.16030534 L4.65555556,9.42900763 C4.77777778,9.57557252 5.03333333,10.1007634 5.22222222,10.589313 C5.74444444,11.9938931 5.91111111,12.1282443 6.12222222,11.3099237 C6.34444444,10.3938931 6.34444444,10.3938931 6.47777778,10.6870229 C6.58888889,10.9557252 6.63333333,10.9557252 7.71111111,10.8946565 C8.51111111,10.8458015 8.98888889,10.8824427 9.38888889,11.0045802 C9.7,11.1022901 10.0111111,11.2 10.1,11.2244275 C10.1888889,11.248855 10.2888889,11.1389313 10.3444444,10.9312977 C10.4222222,10.6137405 10.4,10.5648855 10.0222222,10.3816794 C9.68888889,10.210687 9.3,10.1740458 8.05555556,10.1862595 C7.2,10.1984733 6.4,10.2351145 6.28888889,10.259542 C6.15555556,10.2961832 6.02222222,10.4916031 5.94444444,10.7969466 L5.81111111,11.2732824 L5.62222222,10.821374 C5.4,10.2473282 5.4,10.2473282 5.7,10.3083969 L5.94444444,10.3694656 L5.68888889,10.2473282 C5.06666667,9.94198473 5.35555556,9.36793893 6.25555556,9.12366412 C6.58888889,9.0259542 7.43333333,8.9648855 8.22222222,8.9648855 C9.85555556,8.9648855 10.6444444,9.22137405 11.2111111,9.94198473 C11.6111111,10.4427481 11.6333333,10.5526718 11.3333333,10.6625954 C11.0555556,10.7603053 11.0555556,10.8580153 11.3444444,11.480916 C11.5444444,11.8961832 11.6,11.9450382 11.7222222,11.810687 C11.8111111,11.7129771 11.9555556,11.2610687 12.0444444,10.7969466 L12.0444444,10.7969466 Z M15.5555556,7.79236641 C15.6888889,7.69465649 15.2222222,7.13282443 13.0666667,4.8 C11.6,3.22442748 10.3666667,1.92977099 10.3111111,1.92977099 C10.2666667,1.92977099 10.2222222,2.0519084 10.2222222,2.19847328 C10.2222222,2.36946565 10.7666667,3.05343511 11.9333333,4.29923664 C13.7,6.21679389 13.9777778,6.64427481 14.2444444,7.91450382 L14.3666667,8.5129771 L14.8777778,8.21984733 C15.1555556,8.0610687 15.4666667,7.86564885 15.5555556,7.79236641 L15.5555556,7.79236641 Z M2.68888889,7.23053435 C3.08888889,6.2778626 4.86666667,6.4 5.72222222,7.43816794 C6.04444444,7.82900763 6.15555556,7.90229008 6.23333333,7.78015267 C6.28888889,7.68244275 6.33333333,7.52366412 6.33333333,7.41374046 C6.33333333,7.09618321 7.07777778,6.25343511 7.61111111,5.97251908 C8.36666667,5.58167939 8.94444444,5.63053435 9.38888889,6.11908397 C9.58888889,6.3389313 9.81111111,6.75419847 9.87777778,7.0351145 L10.0111111,7.5480916 L11.3888889,7.5480916 C12.1555556,7.5480916 12.7777778,7.52366412 12.7777778,7.4870229 C12.7777778,7.46259542 12.7,7.19389313 12.5888889,6.9129771 C12.3,6.09465649 11.5111111,4.94656489 10.7555556,4.25038168 C9.92222222,3.48091603 9.57777778,3.00458015 9.48888889,2.45496183 C9.42222222,2.06412214 9.4,2.0519084 8.87777778,2.03969466 C8.57777778,2.02748092 8.26666667,2.01526718 8.2,2.01526718 C8.12222222,2.00305344 7.7,2.03969466 7.25555556,2.07633588 C6.33333333,2.1740458 5.38888889,2.63816794 5.2,3.09007634 C5.02222222,3.51755725 5.14444444,3.59083969 5.63333333,3.3221374 C6.51111111,2.85801527 8.38888889,3.11450382 9.41111111,3.8351145 C10.0222222,4.27480916 10.2,4.64122137 10,5.04427481 C9.77777778,5.49618321 9.42222222,5.54503817 8.68888889,5.22748092 C8.34444444,5.08091603 7.73333333,4.82442748 7.33333333,4.65343511 C6.27777778,4.20152672 5.16666667,4.2259542 3.83333333,4.72671756 C3.28888889,4.93435115 2.63333333,5.2519084 2.38888889,5.44732824 C2.01111111,5.74045802 1.94444444,5.86259542 1.91111111,6.26564885 C1.86666667,7.10839695 1.78888889,7.30381679 1.52222222,7.31603053 C1.3,7.34045802 1.3,7.34045802 1.5,7.38931298 C1.63333333,7.41374046 1.87777778,7.57251908 2.05555556,7.73129771 L2.38888889,8.02442748 L2.48888889,7.75572519 C2.53333333,7.60916031 2.63333333,7.37709924 2.68888889,7.23053435 L2.68888889,7.23053435 Z M9.75555556,4.77557252 C9.78888889,4.55572519 9.67777778,4.42137405 9.26666667,4.12824427 C8.35555556,3.50534351 7.11111111,3.2610687 6.12222222,3.51755725 C5.36666667,3.7129771 5.44444444,3.92061069 6.3,4.03053435 C6.7,4.07938931 7.4,4.31145038 8.02222222,4.60458015 C9.18888889,5.15419847 9.7,5.20305344 9.75555556,4.77557252 L9.75555556,4.77557252 Z" id="Shape" sketch:type="MSShapeGroup"></path>
                <path d="M12.8111111,3.70076336 L10.6111111,1.29465649 L8.83333333,1.35572519 C6.55555556,1.42900763 5.74444444,1.68549618 5.01111111,2.50381679 C4.6,2.98015267 4.54444444,3.11450382 4.58888889,3.45648855 C4.64444444,3.8351145 4.63333333,3.84732824 4.07777778,4.00610687 C3.6,4.14045802 2.78888889,4.55572519 1.52222222,5.3129771 C1.34444444,5.41068702 1.17777778,5.47175573 1.15555556,5.4351145 C1.12222222,5.39847328 1.28888889,4.94656489 1.52222222,4.40916031 C2.14444444,3.01679389 3.5,1.5389313 4.77777778,0.854961832 C7.72222222,-0.696183206 10.9666667,-0.0977099237 13.2222222,2.43053435 C13.6555556,2.90687023 14.1222222,3.57862595 14.3666667,4.10381679 C14.8,5.00763359 15.1444444,5.96030534 15.0666667,6.04580153 C15.0444444,6.07022901 14.0333333,5.01984733 12.8111111,3.70076336 L12.8111111,3.70076336 Z" id="Shape" sketch:type="MSShapeGroup"></path>
            </g>
        </g>
    </g>
</svg>